# xmcd
#
# Track frame offsets:
#	150
#	14175
#	28950
#	51450
#	68400
#	106650
#	122400
#	135225
#	153000
#	163350
#	195975
#	212025
#	229050
#
# Disc length: 3229 seconds
#
# Revision: 2
# Processed by: cddbd v1.5.1PL0 Copyright (c) Steve Scherf et al.
# Submitted via: audiograbber 1.83.01
#
DISCID=a90c9b0d
DTITLE=Blues 'N' Trouble - Blues 'N' Trouble Live
DYEAR=1987
DGENRE=Blues
TTITLE0=Clock On The Wall
TTITLE1=Born In Chicago
TTITLE2=Cherry Peaches
TTITLE3=Sugar Coated Love
TTITLE4=BNT Blues
TTITLE5=What's The Matter?
TTITLE6=Why?
TTITLE7=Travelling Light
TTITLE8=Honey Pot
TTITLE9=Driftin' Blues
TTITLE10=See My Baby Shake It
TTITLE11=Madison Blues
TTITLE12=Lying On The Kitchen Floor
EXTD=
EXTT0=
EXTT1=
EXTT2=
EXTT3=
EXTT4=
EXTT5=
EXTT6=
EXTT7=
EXTT8=
EXTT9=
EXTT10=
EXTT11=
EXTT12=
PLAYORDER=
